<svg width="512" height="512" viewBox="0 0 512 512" fill="none" xmlns="http://www.w3.org/2000/svg">
<path fill-rule="evenodd" clip-rule="evenodd" d="M201.152 191.339H280.384V230.805C291.797 208.107 321.066 187.712 365.035 187.712C449.323 187.712 469.333 232.896 469.333 315.797V469.333H384V334.677C384 287.467 372.587 260.843 343.531 260.843C303.232 260.843 286.485 289.536 286.485 334.656V469.333H201.152V191.339ZM54.8265 465.707H140.16V187.712H54.8265V465.707ZM152.384 97.0666C152.387 104.219 150.968 111.301 148.211 117.9C145.453 124.5 141.411 130.486 136.32 135.509C126.003 145.763 112.038 151.502 97.4932 151.467C82.9735 151.457 69.0411 145.732 58.7092 135.531C53.6363 130.49 49.6081 124.498 46.8552 117.897C44.1023 111.297 42.6789 104.218 42.6665 97.0666C42.6665 82.624 48.4265 68.8 58.7305 58.6026C69.0534 48.3873 82.9916 42.6602 97.5145 42.6666C112.064 42.6666 126.016 48.4053 136.32 58.6026C146.603 68.8 152.384 82.624 152.384 97.0666Z" fill="#333333"/>
</svg>
