<svg width="512" height="512" viewBox="0 0 512 512" fill="none" xmlns="http://www.w3.org/2000/svg">
<path d="M504.384 105.323C486.571 113.216 467.435 118.549 447.317 120.96C468.075 108.54 483.604 88.9913 491.008 65.9626C471.506 77.5464 450.162 85.7001 427.904 90.0693C412.936 74.0878 393.111 63.4949 371.506 59.9354C349.901 56.3759 327.725 60.0489 308.421 70.384C289.117 80.7192 273.766 97.1384 264.75 117.092C255.734 137.046 253.558 159.419 258.56 180.736C219.044 178.752 180.387 168.481 145.097 150.59C109.807 132.699 78.6739 107.587 53.7173 76.8853C45.1839 91.6053 40.2773 108.672 40.2773 126.848C40.2677 143.211 44.2972 159.322 52.008 173.754C59.7188 188.186 70.8727 200.491 84.4799 209.579C68.6992 209.077 53.2666 204.812 39.4666 197.141V198.421C39.465 221.37 47.4033 243.613 61.9345 261.376C76.4657 279.138 96.6948 291.326 119.189 295.872C104.55 299.834 89.2018 300.417 74.3039 297.579C80.6505 317.325 93.0132 334.593 109.661 346.964C126.309 359.335 146.409 366.19 167.147 366.571C131.943 394.206 88.4669 409.197 43.7119 409.131C35.7841 409.133 27.8629 408.67 19.9893 407.744C65.4181 436.953 118.301 452.455 172.309 452.395C355.136 452.395 455.083 300.971 455.083 169.643C455.083 165.376 454.976 161.067 454.784 156.8C474.225 142.741 491.006 125.331 504.341 105.387L504.384 105.323Z" fill="#333333"/>
</svg>
