<svg width="512" height="512" viewBox="0 0 512 512" fill="none" xmlns="http://www.w3.org/2000/svg">
<path d="M256 189.35C219.3 189.35 189.35 219.3 189.35 256C189.35 292.7 219.3 322.65 256 322.65C292.7 322.65 322.65 292.7 322.65 256C322.65 219.3 292.7 189.35 256 189.35ZM455.9 256C455.9 228.4 456.15 201.05 454.6 173.5C453.05 141.5 445.75 113.1 422.35 89.7C398.9 66.25 370.55 59 338.55 57.45C310.95 55.9 283.6 56.15 256.05 56.15C228.45 56.15 201.1 55.9 173.55 57.45C141.55 59 113.15 66.3 89.7499 89.7C66.2999 113.15 59.0499 141.5 57.4999 173.5C55.9499 201.1 56.1999 228.45 56.1999 256C56.1999 283.55 55.9499 310.95 57.4999 338.5C59.0499 370.5 66.3499 398.9 89.7499 422.3C113.2 445.75 141.55 453 173.55 454.55C201.15 456.1 228.5 455.85 256.05 455.85C283.65 455.85 311 456.1 338.55 454.55C370.55 453 398.95 445.7 422.35 422.3C445.8 398.85 453.05 370.5 454.6 338.5C456.2 310.95 455.9 283.6 455.9 256ZM256 358.55C199.25 358.55 153.45 312.75 153.45 256C153.45 199.25 199.25 153.45 256 153.45C312.75 153.45 358.55 199.25 358.55 256C358.55 312.75 312.75 358.55 256 358.55ZM362.75 173.2C349.5 173.2 338.8 162.5 338.8 149.25C338.8 136 349.5 125.3 362.75 125.3C376 125.3 386.7 136 386.7 149.25C386.704 152.396 386.087 155.512 384.885 158.42C383.683 161.327 381.919 163.969 379.694 166.194C377.469 168.419 374.827 170.183 371.92 171.385C369.012 172.587 365.896 173.204 362.75 173.2Z" fill="#333333"/>
</svg>
