<svg width="291" height="291" viewBox="0 0 291 291" fill="none" xmlns="http://www.w3.org/2000/svg">
<g clip-path="url(#clip0_5_106)">
<path d="M173.437 161.717C194.148 161.717 210.937 144.928 210.937 124.217C210.937 103.506 194.148 86.717 173.437 86.717C152.726 86.717 135.937 103.506 135.937 124.217C135.937 144.928 152.726 161.717 173.437 161.717Z" fill="#D4AF37"/>
<path d="M145.312 208.593C134.971 208.593 126.562 217.002 126.562 227.343C126.562 237.684 134.971 246.093 145.312 246.093C155.653 246.093 164.062 237.684 164.062 227.343C164.062 217.002 155.653 208.593 145.312 208.593ZM145.312 236.718C140.142 236.718 135.937 232.513 135.937 227.343C135.937 222.173 140.142 217.968 145.312 217.968C150.482 217.968 154.687 222.173 154.687 227.343C154.687 232.513 150.483 236.718 145.312 236.718Z" fill="#333333"/>
<path d="M283.903 164.657C279.698 161.741 274.317 161.08 269.517 162.866L268.978 163.068L218.273 38.605L90.389 84.28L64.064 21.093H14.062C6.309 21.093 0 27.402 0 35.155C0 42.908 6.309 49.218 14.062 49.218H43.781L110.062 204.224C105.689 210.871 103.125 218.807 103.125 227.343C103.125 250.607 122.053 269.531 145.312 269.531C168.571 269.531 187.499 250.608 187.499 227.343C187.499 226.879 187.443 226.424 187.429 225.965L280.34 192.182C286.49 189.941 290.624 184.044 290.624 177.496C290.625 172.372 288.112 167.577 283.903 164.657ZM157.373 70.311L171.867 102.922L157.139 108.814L142.402 75.659L157.373 70.311ZM133.547 78.819L152.236 120.871L184.383 108.013L166.224 67.152L212.977 50.455L260.199 166.363L175.632 198.079C167.954 190.124 157.21 185.156 145.313 185.156C141.09 185.156 137.021 185.798 133.172 186.956L93.998 92.942L133.547 78.819ZM14.062 39.843C11.479 39.843 9.375 37.743 9.375 35.155C9.375 32.567 11.48 30.467 14.062 30.467H57.81L124.555 190.658C121.771 192.238 119.202 194.136 116.858 196.283L49.969 39.843H14.062ZM145.312 260.155C127.218 260.155 112.5 245.432 112.5 227.342C112.5 209.252 127.219 194.529 145.312 194.529C163.405 194.529 178.124 209.252 178.124 227.342C178.124 245.432 163.406 260.155 145.312 260.155ZM277.139 183.369L186.038 216.496C185.03 212.718 183.516 209.151 181.561 205.865L272.808 171.646C274.758 170.91 276.849 171.173 278.564 172.359C280.27 173.545 281.25 175.42 281.25 177.496C281.25 180.116 279.595 182.474 277.139 183.369Z" fill="#333333"/>
</g>
<defs>
<clipPath id="clip0_5_106">
<rect width="290.624" height="290.624" fill="white"/>
</clipPath>
</defs>
</svg>
